<?xml version="1.0" encoding="UTF-8" standalone="no"?>
<svg
   xmlns:dc="http://purl.org/dc/elements/1.1/"
   xmlns:cc="http://creativecommons.org/ns#"
   xmlns:rdf="http://www.w3.org/1999/02/22-rdf-syntax-ns#"
   xmlns:svg="http://www.w3.org/2000/svg"
   xmlns="http://www.w3.org/2000/svg"
   viewBox="0 0 800 800"
   height="800"
   width="800"
   xml:space="preserve"
   id="svg2"
   version="1.1"><metadata
     id="metadata8"><rdf:RDF><cc:Work
         rdf:about=""><dc:format>image/svg+xml</dc:format><dc:type
           rdf:resource="http://purl.org/dc/dcmitype/StillImage" /></cc:Work></rdf:RDF></metadata><defs
     id="defs6"><clipPath
       id="clipPath18"
       clipPathUnits="userSpaceOnUse"><path
         id="path16"
         d="M 0,600 H 600 V 0 H 0 Z" /></clipPath><clipPath
       id="clipPath42"
       clipPathUnits="userSpaceOnUse"><path
         id="path40"
         d="m 212.589,563.422 c 0.135,-0.179 0.263,-0.358 0.387,-0.538 v 0 c 0.097,0.188 0.195,0.368 0.292,0.538 v 0 z m 2.714,-19.001 c 2.715,-0.677 6.108,0.679 7.466,3.395 v 0 c 0.678,3.392 -2.715,5.427 -4.751,7.463 v 0 c -2.535,2.535 -3.295,5.072 -5.042,7.605 v 0 c -2.606,-5.028 -4.869,-15.846 2.327,-18.463" /></clipPath><linearGradient
       id="linearGradient54"
       spreadMethod="pad"
       gradientTransform="matrix(12.392578,0,0,-12.392578,210.46436,553.83545)"
       gradientUnits="userSpaceOnUse"
       y2="0"
       x2="1"
       y1="0"
       x1="0"><stop
         id="stop48"
         offset="0"
         style="stop-opacity:1;stop-color:#ffdb29" /><stop
         id="stop50"
         offset="0.987885"
         style="stop-opacity:1;stop-color:#ffb700" /><stop
         id="stop52"
         offset="1"
         style="stop-opacity:1;stop-color:#ffb700" /></linearGradient><clipPath
       id="clipPath64"
       clipPathUnits="userSpaceOnUse"><path
         id="path62"
         d="m 262.807,552.567 c 8.143,4.748 -4.751,14.25 -4.751,19.677 v 0 3.395 c 0,-4.071 -7.464,-29.182 4.751,-23.072" /></clipPath><linearGradient
       id="linearGradient76"
       spreadMethod="pad"
       gradientTransform="matrix(9.7055664,0,0,-9.7055664,255.79834,563.62598)"
       gradientUnits="userSpaceOnUse"
       y2="0"
       x2="1"
       y1="0"
       x1="0"><stop
         id="stop70"
         offset="0"
         style="stop-opacity:1;stop-color:#ffdb29" /><stop
         id="stop72"
         offset="0.987885"
         style="stop-opacity:1;stop-color:#ffb700" /><stop
         id="stop74"
         offset="1"
         style="stop-opacity:1;stop-color:#ffb700" /></linearGradient><clipPath
       id="clipPath86"
       clipPathUnits="userSpaceOnUse"><path
         id="path84"
         d="m 308.275,568.174 c 0.024,-0.165 0.058,-0.33 0.101,-0.496 v 0 c 0.407,0.47 0.829,0.869 1.256,1.174 v 0 z m 2.715,-13.572 c 7.207,3.274 -1.399,8.447 -2.614,13.076 v 0 c -4.112,-4.753 -6.65,-16.783 2.614,-13.076" /></clipPath><linearGradient
       id="linearGradient98"
       spreadMethod="pad"
       gradientTransform="matrix(9.1699219,0,0,-9.1699219,304.66699,561.37793)"
       gradientUnits="userSpaceOnUse"
       y2="0"
       x2="1"
       y1="0"
       x1="0"><stop
         id="stop92"
         offset="0"
         style="stop-opacity:1;stop-color:#ffdb29" /><stop
         id="stop94"
         offset="0.987885"
         style="stop-opacity:1;stop-color:#ffb700" /><stop
         id="stop96"
         offset="1"
         style="stop-opacity:1;stop-color:#ffb700" /></linearGradient><clipPath
       id="clipPath108"
       clipPathUnits="userSpaceOnUse"><path
         id="path106"
         d="m 347.635,546.457 c 8.822,-4.749 2.036,10.18 1.357,12.217 v 0 l 0.679,2.036 c -2.714,-2.716 -7.465,-11.538 -2.036,-14.253" /></clipPath><linearGradient
       id="linearGradient120"
       spreadMethod="pad"
       gradientTransform="matrix(6.9765625,0,0,-6.9765625,345.14648,553.11914)"
       gradientUnits="userSpaceOnUse"
       y2="0"
       x2="1"
       y1="0"
       x1="0"><stop
         id="stop114"
         offset="0"
         style="stop-opacity:1;stop-color:#ffdb29" /><stop
         id="stop116"
         offset="0.987885"
         style="stop-opacity:1;stop-color:#ffb700" /><stop
         id="stop118"
         offset="1"
         style="stop-opacity:1;stop-color:#ffb700" /></linearGradient><clipPath
       id="clipPath138"
       clipPathUnits="userSpaceOnUse"><path
         id="path136"
         d="M 0,600 H 600 V 0 H 0 Z" /></clipPath><clipPath
       id="clipPath150"
       clipPathUnits="userSpaceOnUse"><path
         id="path148"
         d="M 0,600 H 600 V 0 H 0 Z" /></clipPath><clipPath
       id="clipPath166"
       clipPathUnits="userSpaceOnUse"><path
         id="path164"
         d="M 72.52,133.316 H 502.986 V 26.833 H 72.52 Z" /></clipPath><clipPath
       id="clipPath186"
       clipPathUnits="userSpaceOnUse"><path
         id="path184"
         d="M 0,600 H 600 V 0 H 0 Z" /></clipPath><clipPath
       id="clipPath206"
       clipPathUnits="userSpaceOnUse"><path
         id="path204"
         d="M 0,600 H 600 V 0 H 0 Z" /></clipPath><clipPath
       id="clipPath382"
       clipPathUnits="userSpaceOnUse"><path
         id="path380"
         d="M 0,600 H 600 V 0 H 0 Z" /></clipPath><clipPath
       id="clipPath390"
       clipPathUnits="userSpaceOnUse"><path
         id="path388"
         d="m 153.716,152.695 h 11.171 v -11.15 h -11.171 z" /></clipPath><clipPath
       id="clipPath406"
       clipPathUnits="userSpaceOnUse"><path
         id="path404"
         d="m 142.818,132.218 h 12.755 v -5.382 h -12.755 z" /></clipPath><clipPath
       id="clipPath422"
       clipPathUnits="userSpaceOnUse"><path
         id="path420"
         d="m 180.361,125.356 h 9.946 v -6.921 h -9.946 z" /></clipPath><clipPath
       id="clipPath438"
       clipPathUnits="userSpaceOnUse"><path
         id="path436"
         d="m 183.667,159.894 h 9.417 v -10.998 h -9.417 z" /></clipPath><clipPath
       id="clipPath454"
       clipPathUnits="userSpaceOnUse"><path
         id="path452"
         d="m 109.52,137.006 h 7.724 v -9.113 h -7.724 z" /></clipPath><clipPath
       id="clipPath470"
       clipPathUnits="userSpaceOnUse"><path
         id="path468"
         d="m 94.3296,146.635 h 6.8474 v -11.204 h -6.8474 z" /></clipPath><clipPath
       id="clipPath486"
       clipPathUnits="userSpaceOnUse"><path
         id="path484"
         d="m 251.371,114.907 h 11.557 v -9.913 h -11.557 z" /></clipPath><clipPath
       id="clipPath502"
       clipPathUnits="userSpaceOnUse"><path
         id="path500"
         d="m 224.417,114.695 h 8.942 v -9.034 h -8.942 z" /></clipPath><clipPath
       id="clipPath518"
       clipPathUnits="userSpaceOnUse"><path
         id="path516"
         d="m 288.447,158.029 h 8.924 v -7.623 h -8.924 z" /></clipPath><clipPath
       id="clipPath534"
       clipPathUnits="userSpaceOnUse"><path
         id="path532"
         d="m 285.745,127.491 h 11 v -7.945 h -11 z" /></clipPath><clipPath
       id="clipPath550"
       clipPathUnits="userSpaceOnUse"><path
         id="path548"
         d="m 266.193,144.827 h 9.906 v -5.086 h -9.906 z" /></clipPath><clipPath
       id="clipPath566"
       clipPathUnits="userSpaceOnUse"><path
         id="path564"
         d="m 319.754,143.66 h 9.286 v -7.57 h -9.286 z" /></clipPath><clipPath
       id="clipPath582"
       clipPathUnits="userSpaceOnUse"><path
         id="path580"
         d="m 312.546,166.021 h 8.47 v -5.903 h -8.47 z" /></clipPath><clipPath
       id="clipPath598"
       clipPathUnits="userSpaceOnUse"><path
         id="path596"
         d="m 352.445,124.502 h 3.426 v -4.655 h -3.426 z" /></clipPath><clipPath
       id="clipPath614"
       clipPathUnits="userSpaceOnUse"><path
         id="path612"
         d="m 320.023,117.703 h 9.553 v -9.554 h -9.553 z" /></clipPath><clipPath
       id="clipPath630"
       clipPathUnits="userSpaceOnUse"><path
         id="path628"
         d="m 349.771,174.714 h 15.318 v -6.96 h -15.318 z" /></clipPath><clipPath
       id="clipPath646"
       clipPathUnits="userSpaceOnUse"><path
         id="path644"
         d="m 342.385,151.188 h 12.498 v -8.232 h -12.498 z" /></clipPath><clipPath
       id="clipPath662"
       clipPathUnits="userSpaceOnUse"><path
         id="path660"
         d="m 383.321,149.515 h 4.033 v -15.032 h -4.033 z" /></clipPath><clipPath
       id="clipPath678"
       clipPathUnits="userSpaceOnUse"><path
         id="path676"
         d="m 369.516,164.87 h 8.808 v -10.198 h -8.808 z" /></clipPath><clipPath
       id="clipPath694"
       clipPathUnits="userSpaceOnUse"><path
         id="path692"
         d="m 372.986,183.378 h 9.586 v -5.66 h -9.586 z" /></clipPath><clipPath
       id="clipPath710"
       clipPathUnits="userSpaceOnUse"><path
         id="path708"
         d="m 414.699,161.854 h 13.26 v -9.213 h -13.26 z" /></clipPath><clipPath
       id="clipPath726"
       clipPathUnits="userSpaceOnUse"><path
         id="path724"
         d="m 398.702,163.088 h 7.772 v -12.187 h -7.772 z" /></clipPath><clipPath
       id="clipPath742"
       clipPathUnits="userSpaceOnUse"><path
         id="path740"
         d="m 410.019,136.745 h 11.198 v -5.338 h -11.198 z" /></clipPath><clipPath
       id="clipPath758"
       clipPathUnits="userSpaceOnUse"><path
         id="path756"
         d="m 368.296,125.252 h 12.919 v -7.128 h -12.919 z" /></clipPath><clipPath
       id="clipPath774"
       clipPathUnits="userSpaceOnUse"><path
         id="path772"
         d="m 444.24,147.068 h 6.796 v -9.777 h -6.796 z" /></clipPath><clipPath
       id="clipPath790"
       clipPathUnits="userSpaceOnUse"><path
         id="path788"
         d="m 443.916,174.17 h 7.24 v -13.195 h -7.24 z" /></clipPath><clipPath
       id="clipPath806"
       clipPathUnits="userSpaceOnUse"><path
         id="path804"
         d="m 488.149,150.252 h 9.067 v -10.628 h -9.067 z" /></clipPath><clipPath
       id="clipPath822"
       clipPathUnits="userSpaceOnUse"><path
         id="path820"
         d="m 462.589,137.834 h 10.221 v -2.979 h -10.221 z" /></clipPath><clipPath
       id="clipPath838"
       clipPathUnits="userSpaceOnUse"><path
         id="path836"
         d="m 142.154,168.985 h 10.071 v -7.039 h -10.071 z" /></clipPath><clipPath
       id="clipPath854"
       clipPathUnits="userSpaceOnUse"><path
         id="path852"
         d="m 206.453,142.695 h 6.122 V 128 h -6.122 z" /></clipPath><clipPath
       id="clipPath870"
       clipPathUnits="userSpaceOnUse"><path
         id="path868"
         d="m 162.985,172.762 h 6.369 v -10.615 h -6.369 z" /></clipPath><clipPath
       id="clipPath886"
       clipPathUnits="userSpaceOnUse"><path
         id="path884"
         d="m 157.647,114.479 h 8.183 v -5.387 h -8.183 z" /></clipPath><clipPath
       id="clipPath902"
       clipPathUnits="userSpaceOnUse"><path
         id="path900"
         d="m 396.635,119.658 h 11.724 v -6.316 h -11.724 z" /></clipPath><clipPath
       id="clipPath918"
       clipPathUnits="userSpaceOnUse"><path
         id="path916"
         d="m 128.2,148.614 h 8.597 v -8.681 H 128.2 Z" /></clipPath><clipPath
       id="clipPath934"
       clipPathUnits="userSpaceOnUse"><path
         id="path932"
         d="m 125.864,124.065 h 6.408 v -7.729 h -6.408 z" /></clipPath><clipPath
       id="clipPath950"
       clipPathUnits="userSpaceOnUse"><path
         id="path948"
         d="m 91.4355,162.853 h 4.209 v -5.591 h -4.209 z" /></clipPath><clipPath
       id="clipPath966"
       clipPathUnits="userSpaceOnUse"><path
         id="path964"
         d="m 81.4258,135.883 h 8.8867 v -8.888 h -8.8867 z" /></clipPath><clipPath
       id="clipPath982"
       clipPathUnits="userSpaceOnUse"><path
         id="path980"
         d="m 435.531,129.259 h 9.575 v -6.636 h -9.575 z" /></clipPath><clipPath
       id="clipPath998"
       clipPathUnits="userSpaceOnUse"><path
         id="path996"
         d="m 200.797,114.735 h 8.521 v -8.517 h -8.521 z" /></clipPath><clipPath
       id="clipPath1014"
       clipPathUnits="userSpaceOnUse"><path
         id="path1012"
         d="m 254.518,133.54 h 6.477 v -6.478 h -6.477 z" /></clipPath><clipPath
       id="clipPath1030"
       clipPathUnits="userSpaceOnUse"><path
         id="path1028"
         d="m 281.279,109.754 h 9.958 v -6.21 h -9.958 z" /></clipPath><clipPath
       id="clipPath1046"
       clipPathUnits="userSpaceOnUse"><path
         id="path1044"
         d="m 344.885,112.122 h 13.013 v -6.115 h -13.013 z" /></clipPath></defs><g
     transform="matrix(1.3333333,0,0,-1.3333333,0,800)"
     id="g10"><g
       id="g12"><g
         clip-path="url(#clipPath18)"
         id="g14"><g
           transform="translate(247.3716,441.2866)"
           id="g20"><path
             id="path22"
             style="fill:#a56eed;fill-opacity:1;fill-rule:nonzero;stroke:none"
             d="M 0,0 C 0.78,-4.242 -2.025,-8.309 -6.264,-9.087 L -6.718,-9.17 c -4.24,-0.78 -8.308,2.023 -9.087,6.264 L -32.077,85.61 c -0.78,4.243 2.026,8.309 6.264,9.087 l 0.455,0.083 c 4.239,0.781 8.307,-2.022 9.087,-6.264 z" /></g><g
           transform="translate(323.2002,445.8784)"
           id="g24"><path
             id="path26"
             style="fill:#00a69a;fill-opacity:1;fill-rule:nonzero;stroke:none"
             d="M 0,0 C -0.78,-4.242 2.025,-8.309 6.265,-9.087 L 6.718,-9.17 c 4.24,-0.78 8.308,2.023 9.088,6.264 L 32.077,85.61 c 0.779,4.243 -2.025,8.309 -6.264,9.087 l -0.455,0.083 c -4.24,0.781 -8.307,-2.022 -9.087,-6.264 z" /></g><g
           transform="translate(261.2827,447.7842)"
           id="g28"><path
             id="path30"
             style="fill:#fa9c00;fill-opacity:1;fill-rule:nonzero;stroke:none"
             d="m 0,0 c 0.337,-4.298 4.095,-7.506 8.391,-7.17 l 0.461,0.036 c 4.296,0.339 7.508,4.092 7.169,8.392 L 8.977,90.982 C 8.64,95.283 4.882,98.489 0.586,98.152 L 0.125,98.117 c -4.296,-0.339 -7.508,-4.092 -7.169,-8.392 z" /></g><g
           transform="translate(293.6431,451.2412)"
           id="g32"><path
             id="path34"
             style="fill:#ff709f;fill-opacity:1;fill-rule:nonzero;stroke:none"
             d="m 0,0 c -0.301,-4.3 2.94,-8.028 7.24,-8.329 l 0.461,-0.034 c 4.299,-0.3 8.029,2.94 8.33,7.242 l 6.285,89.781 c 0.301,4.302 -2.941,8.028 -7.24,8.329 l -0.461,0.033 c -4.299,0.301 -8.03,-2.939 -8.33,-7.241 z" /></g></g></g><g
       id="g36"><g
         clip-path="url(#clipPath42)"
         id="g38"><g
           id="g44"><g
             id="g46"><path
               id="path56"
               style="fill:url(#linearGradient54);stroke:none"
               d="m 212.589,563.422 c 0.135,-0.179 0.263,-0.358 0.387,-0.538 v 0 c 0.097,0.188 0.195,0.368 0.292,0.538 v 0 z m 2.714,-19.001 c 2.715,-0.677 6.108,0.679 7.466,3.395 v 0 c 0.678,3.392 -2.715,5.427 -4.751,7.463 v 0 c -2.535,2.535 -3.295,5.072 -5.042,7.605 v 0 c -2.606,-5.028 -4.869,-15.846 2.327,-18.463" /></g></g></g></g><g
       id="g58"><g
         clip-path="url(#clipPath64)"
         id="g60"><g
           id="g66"><g
             id="g68"><path
               id="path78"
               style="fill:url(#linearGradient76);stroke:none"
               d="m 262.807,552.567 c 8.143,4.748 -4.751,14.25 -4.751,19.677 v 0 3.395 c 0,-4.071 -7.464,-29.182 4.751,-23.072" /></g></g></g></g><g
       id="g80"><g
         clip-path="url(#clipPath86)"
         id="g82"><g
           id="g88"><g
             id="g90"><path
               id="path100"
               style="fill:url(#linearGradient98);stroke:none"
               d="m 308.275,568.174 c 0.024,-0.165 0.058,-0.33 0.101,-0.496 v 0 c 0.407,0.47 0.829,0.869 1.256,1.174 v 0 z m 2.715,-13.572 c 7.207,3.274 -1.399,8.447 -2.614,13.076 v 0 c -4.112,-4.753 -6.65,-16.783 2.614,-13.076" /></g></g></g></g><g
       id="g102"><g
         clip-path="url(#clipPath108)"
         id="g104"><g
           id="g110"><g
             id="g112"><path
               id="path122"
               style="fill:url(#linearGradient120);stroke:none"
               d="m 347.635,546.457 c 8.822,-4.749 2.036,10.18 1.357,12.217 v 0 l 0.679,2.036 c -2.714,-2.716 -7.465,-11.538 -2.036,-14.253" /></g></g></g></g><g
       transform="translate(169.7915,435.1084)"
       id="g124"><path
         id="path126"
         style="fill:#ba6232;fill-opacity:1;fill-rule:nonzero;stroke:none"
         d="m 0,0 11.012,-82.108 h 208.157 l 7.763,91.82 -27.16,18.987 L 129.156,42.946 50.393,32.145 13.048,19.199 Z" /></g><g
       transform="translate(120.6143,290.1338)"
       id="g128"><path
         id="path130"
         style="fill:#e6aa43;fill-opacity:1;fill-rule:nonzero;stroke:none"
         d="M 0,0 14.544,-79.134 H 314.62 L 331.108,28.653 297.837,62.917 163.439,67.808 34.386,50.266 Z" /></g><g
       id="g132"><g
         clip-path="url(#clipPath138)"
         id="g134"><g
           transform="translate(507.4023,170.6406)"
           id="g140"><path
             id="path142"
             style="fill:#ba6232;fill-opacity:1;fill-rule:nonzero;stroke:none"
             d="m 0,0 -27.162,27.16 -145.305,10.184 -197.693,-8.149 -69.832,-37.343 12.471,-77.061 c 0.03,-0.211 -0.881,-0.42 1.119,-0.633 v 0.201 h -1.593 c 5.853,-33 96.945,-57.926 208.754,-57.926 112.057,0 203.426,25.665 208.905,57.986 l 0.209,0.052 z" /></g></g></g><g
       id="g144"><g
         clip-path="url(#clipPath150)"
         id="g146"><g
           transform="translate(203.3804,398.1182)"
           id="g152"><path
             id="path154"
             style="fill:#691e19;fill-opacity:1;fill-rule:nonzero;stroke:none"
             d="m 0,0 c 18.827,7.031 39.86,1.724 58.236,-3.995 10.762,-3.352 21.442,-6.244 32.711,-3.41 11.308,2.842 20.661,9.112 31.149,13.961 20.957,9.697 43.303,5.605 62.059,-7.349 1.615,-1.115 3.249,-2.341 4.871,-3.66 l 0.906,10.724 c -9.18,7.78 -19.528,13.943 -31.622,16.363 C 133.69,27.555 114.163,14.968 91.071,9.614 77.857,6.554 65.162,5.845 52.186,10.361 41.748,13.993 30.276,20.993 19.089,21.683 -0.536,22.896 -13.282,2.339 -27.355,-9.58 l 1.831,-13.659 C -20.012,-12.862 -11.792,-4.408 0,0" /></g><g
           transform="translate(435.4355,253.6787)"
           id="g156"><path
             id="path158"
             style="fill:#ba6232;fill-opacity:1;fill-rule:nonzero;stroke:none"
             d="m 0,0 c -7.189,1.827 -14.438,3.429 -21.756,4.65 -8.499,1.421 -8.496,1.487 -18.222,2.392 -30.883,2.873 -61.928,2.567 -92.895,1.51 -60.012,-2.055 -118.385,-2.844 -171.765,-28.035 l 4.361,-23.817 H -0.201 L 6.145,-1.692 C 4.105,-1.097 2.063,-0.522 0,0" /></g><g
           id="g160"><g
             id="g162" /><g
             id="g174"><g
               style="opacity:0.17999303"
               id="g172"
               clip-path="url(#clipPath166)"><g
                 id="g170"
                 transform="translate(291.8599,98.7539)"><path
                   id="path168"
                   style="fill:#f2cf74;fill-opacity:1;fill-rule:nonzero;stroke:none"
                   d="m 0,0 c -45.687,-0.561 -91.397,2.217 -136.854,6.636 -20.816,2.024 -41,6.436 -60.384,14.383 -7.443,3.051 -14.787,6.311 -22.102,9.636 l 6.794,-43.977 c 0.03,-0.211 -1.3,-0.42 0.551,-0.633 v -0.28 h -0.457 c 5.853,-31.465 96.945,-57.686 208.753,-57.686 112.058,0 203.426,25.783 208.906,58.105 l 0.209,0.115 5.71,48.264 C 142.699,13.517 71.791,0.881 0,0" /></g></g></g></g><g
           transform="translate(283.1323,53.6035)"
           id="g176"><path
             id="path178"
             style="fill:#6d3218;fill-opacity:1;fill-rule:nonzero;stroke:none"
             d="m 0,0 c -85.876,0 -161.107,12.165 -203.558,30.185 7.119,-31.138 97.648,-56.956 208.587,-56.956 112.057,0 203.426,25.784 208.905,58.105 l 0.209,0.115 0.495,4.193 C 175.079,14.548 93.864,0 0,0" /></g></g></g><g
       id="g180"><g
         clip-path="url(#clipPath186)"
         id="g182"><g
           transform="translate(58.8706,174.4941)"
           id="g188"><path
             id="path190"
             style="fill:#f8df9e;fill-opacity:1;fill-rule:nonzero;stroke:none"
             d="m 0,0 c -0.166,-0.813 -0.313,-1.652 -0.451,-2.498 l -0.292,0.541 z m 455.493,13.729 c -10.239,31.787 -54.105,32.509 -82.62,35.399 -29.976,3.614 -62.146,0.724 -92.851,0.724 -33.635,0 -66.534,3.612 -100.166,3.612 -41.674,0 -79.691,-3.612 -119.905,-14.45 C 42.478,34.363 2.178,22.383 -1.953,0.28 L -2.194,0.725 C -3.048,-4.063 -2.665,-8.955 -1.121,-13.49 -0.734,-20.667 1.516,-27.664 7.31,-32.51 31.438,-52.016 21.933,-6.5 32.169,-2.888 42.404,0 43.867,-18.06 49.715,-20.949 c 8.043,-5.059 14.624,2.889 19.742,8.668 C 81.885,0 94.314,5.782 112.593,5.059 c 16.815,-0.723 32.9,-12.283 40.211,-26.733 5.849,-12.281 19.74,-38.289 36.557,-19.506 5.118,5.059 7.311,15.897 11.698,22.399 6.579,8.67 12.429,16.615 21.202,21.672 19.01,12.281 27.783,0 46.063,-0.723 17.545,-0.722 25.589,19.506 44.596,18.062 19.012,-1.444 27.783,-21.673 46.062,-21.673 14.622,0 33.631,29.621 42.406,7.225 2.923,-7.948 -3.657,-46.962 16.083,-32.511 7.312,5.055 4.387,15.171 9.506,20.952 8.773,11.559 9.504,1.443 16.085,-5.059 18.277,-19.506 16.083,13.004 12.431,24.565" /></g><g
           transform="translate(107.4961,304.9434)"
           id="g192"><path
             id="path194"
             style="fill:#fbde8b;fill-opacity:1;fill-rule:nonzero;stroke:none"
             d="m 0,0 c 2.218,-12.279 15.531,-47.682 25.146,-18.06 5.917,18.784 9.614,31.788 30.325,17.338 22.188,-15.173 21.447,0 31.065,16.618 11.09,19.506 26.625,-0.722 42.894,-2.168 17.752,-1.446 35.503,4.336 50.295,13.004 6.657,4.336 16.271,14.45 24.407,13.728 8.136,-0.722 13.311,-12.284 20.708,-15.896 20.711,-10.836 25.148,19.508 42.158,1.446 8.877,-9.392 16.273,-41.182 31.065,-41.905 22.19,-1.441 7.396,39.015 25.147,39.015 8.876,0 11.095,-46.96 27.368,-19.508 8.873,15.896 -0.741,32.514 -13.316,42.626 -25.147,18.786 -64.346,18.064 -93.93,20.951 -31.804,2.169 -64.346,-0.721 -96.15,-1.443 C 103.547,64.302 -19.23,59.966 0.739,-10.113 2.218,-16.615 7.396,-25.285 14.052,-26.008" /></g><g
           transform="translate(404.1777,447.9927)"
           id="g196"><path
             id="path198"
             style="fill:#f8df9e;fill-opacity:1;fill-rule:nonzero;stroke:none"
             d="m 0,0 c -1.447,8.67 -7.947,13.728 -15.172,18.062 -13.006,9.392 -28.899,15.894 -44.795,19.506 -31.064,7.224 -62.13,10.114 -93.919,2.89 -15.172,-2.89 -31.788,-5.78 -45.514,-13.004 -11.561,-5.78 -33.956,-14.45 -40.459,-26.008 -0.912,-1.367 -1.618,-2.899 -2.148,-4.504 l -0.019,0.168 c -4.335,-5.78 -0.722,-26.73 4.334,-32.512 12.282,-12.282 10.838,28.176 20.953,32.512 15.892,7.226 20.95,-31.066 36.122,-4.336 9.392,15.896 13.726,28.9 33.233,16.618 12.282,-7.946 8.67,-5.056 19.506,2.166 10.115,6.504 12.282,2.17 20.953,-2.888 12.282,-6.504 11.559,-2.168 23.118,2.888 12.282,6.504 10.116,0 17.34,-5.778 7.224,-6.502 10.113,-4.334 12.281,-15.172 1.447,-5.056 0.724,-20.228 10.115,-15.894 6.502,2.888 2.891,17.338 4.335,22.396 0.632,1.897 2.922,7.107 5.42,8.868 2.91,-4.086 2.412,-9.047 4.607,-13.48 1.791,-3.609 6.133,-6.562 10.274,-5.323 4.289,1.283 5.85,6.5 5.789,11.637 0.236,-0.083 0.453,-0.211 0.605,-0.384 0.566,-0.643 1.01,-1.356 1.422,-2.089 0.789,-6.02 -1.569,-16.045 3.672,-16.567 C -2.168,-20.952 0.723,-3.612 0,0" /></g></g></g><g
       id="g200"><g
         clip-path="url(#clipPath206)"
         id="g202"><g
           transform="translate(428.6494,300.3828)"
           id="g208"><path
             id="path210"
             style="fill:#ba6232;fill-opacity:1;fill-rule:nonzero;stroke:none"
             d="M 0,0 C 0.076,-0.67 0.229,-1.217 0.667,-1.742 0.949,-2.08 1.281,-2.237 1.35,-2.686 1.573,-4.141 3.841,-3.74 3.85,-2.35 3.854,-1.769 3.726,-1.237 3.388,-0.76 3.259,-0.578 2.813,-0.229 2.805,0 2.744,1.836 -0.2,1.765 0,0" /></g><g
           transform="translate(419.0586,274.1563)"
           id="g212"><path
             id="path214"
             style="fill:#ba6232;fill-opacity:1;fill-rule:nonzero;stroke:none"
             d="M 0,0 C 3.121,0.828 6.473,1.345 8.982,3.568 10.752,5.139 8.812,7.449 6.898,7.146 5.78,6.968 4.696,6.788 3.564,6.707 1.766,6.582 0.174,6.1 -1.508,5.465 -4.866,4.199 -3.595,-0.956 0,0" /></g><g
           transform="translate(378.0859,289.5361)"
           id="g216"><path
             id="path218"
             style="fill:#ba6232;fill-opacity:1;fill-rule:nonzero;stroke:none"
             d="m 0,0 c 0.637,-0.511 1.25,-0.929 1.997,-1.253 0.75,-0.326 1.464,-0.619 2.12,-1.119 0.6,-0.46 1.574,-0.227 2.067,0.264 0.689,0.691 0.616,1.718 0,2.418 C 5.234,1.386 3.865,1.865 2.906,2.901 1.073,4.883 -2.035,1.634 0,0" /></g><g
           transform="translate(144.5962,276.5742)"
           id="g220"><path
             id="path222"
             style="fill:#ba6232;fill-opacity:1;fill-rule:nonzero;stroke:none"
             d="m 0,0 c 1.083,-0.143 2.166,-0.307 3.253,-0.41 1.267,-0.121 2.531,0.05 3.795,0.148 2.253,0.178 2.253,3.323 0,3.5 C 5.971,3.323 4.875,3.482 3.795,3.422 2.523,3.353 1.262,3.145 0,2.979 -1.914,2.725 -1.914,0.252 0,0" /></g><g
           transform="translate(153.0229,294.0225)"
           id="g224"><path
             id="path226"
             style="fill:#ba6232;fill-opacity:1;fill-rule:nonzero;stroke:none"
             d="m 0,0 c 1.072,-0.756 1.977,-1.731 2.841,-2.711 0.86,-0.977 2.01,-2.462 3.343,-2.724 1.928,-0.378 3.44,1.132 3.06,3.061 C 8.941,-0.843 7.106,0.439 5.899,1.253 4.519,2.184 3.047,2.95 1.482,3.516 0.68,3.807 -0.28,3.331 -0.689,2.632 -1.254,1.671 -0.854,0.604 0,0" /></g><g
           transform="translate(177.4883,278.0996)"
           id="g228"><path
             id="path230"
             style="fill:#ba6232;fill-opacity:1;fill-rule:nonzero;stroke:none"
             d="M 0,0 C 1.781,-0.131 4.027,0.561 5.318,1.84 6.662,3.174 8.579,5.5 7.813,7.549 7.42,8.592 6.476,9.234 5.339,8.949 2.873,8.336 1.973,4.966 -0.615,4.545 -1.617,4.381 -2.314,3.26 -2.314,2.313 -2.314,0.984 -1.258,0.092 0,0" /></g><g
           transform="translate(202.0972,315.4229)"
           id="g232"><path
             id="path234"
             style="fill:#ba6232;fill-opacity:1;fill-rule:nonzero;stroke:none"
             d="M 0,0 C 1.215,-2.101 3.023,-4.585 5.774,-4.35 8.333,-4.128 8.771,-0.845 6.368,0.049 6.666,-0.087 6.701,-0.097 6.478,0.027 6.73,-0.184 6.756,-0.197 6.557,-0.016 6.375,0.188 6.382,0.17 6.577,-0.076 6.353,0.226 6.121,0.511 5.876,0.796 6.196,0.423 5.602,1.26 5.547,1.354 5.269,1.82 5.041,2.32 4.818,2.816 4.197,4.206 2.206,4.524 1,3.818 -0.315,3.047 -0.762,1.316 0,0" /></g><g
           transform="translate(204.5059,292.1543)"
           id="g236"><path
             id="path238"
             style="fill:#ba6232;fill-opacity:1;fill-rule:nonzero;stroke:none"
             d="M 0,0 C 1.551,0.041 3.46,0.242 4.882,-0.516 6.508,-1.383 8.761,0.46 7.573,2.176 5.843,4.673 2.768,4.639 0,4.713 -3.04,4.794 -3.04,-0.078 0,0" /></g><g
           transform="translate(245.1533,285.5811)"
           id="g240"><path
             id="path242"
             style="fill:#ba6232;fill-opacity:1;fill-rule:nonzero;stroke:none"
             d="M 0,0 C 0.587,0.565 1.612,0.876 2.33,1.276 3.224,1.771 3.895,2.421 4.441,3.282 5.478,4.912 3.463,6.763 1.869,5.854 1.742,5.778 1.612,5.708 1.477,5.644 1.891,5.854 1.011,5.444 0.894,5.388 1.187,5.526 0.348,5.233 0.203,5.19 -0.709,4.937 -1.656,4.581 -2.59,4.446 -4.324,4.194 -4.965,1.881 -4.179,0.538 -3.299,-0.962 -1.233,-1.188 0,0" /></g><g
           transform="translate(229.1753,304.0288)"
           id="g244"><path
             id="path246"
             style="fill:#ba6232;fill-opacity:1;fill-rule:nonzero;stroke:none"
             d="M 0,0 C 2.356,-0.061 7.033,-0.211 7.645,2.915 7.857,4 7.145,5.338 5.874,5.239 5.05,5.174 4.368,4.767 3.558,4.688 2.37,4.574 1.194,4.486 0,4.455 -2.871,4.376 -2.871,0.076 0,0" /></g><g
           transform="translate(279.4194,320.355)"
           id="g248"><path
             id="path250"
             style="fill:#ba6232;fill-opacity:1;fill-rule:nonzero;stroke:none"
             d="M 0,0 C -0.286,-3.056 0.11,-6.347 2.095,-8.746 3.15,-10.022 5.061,-9.425 5.865,-8.259 7.742,-5.544 5.542,-2.143 5.142,0.695 4.982,1.83 3.668,2.617 2.618,2.617 1.091,2.617 0.134,1.422 0,0" /></g><g
           transform="translate(274.0991,294.793)"
           id="g252"><path
             id="path254"
             style="fill:#ba6232;fill-opacity:1;fill-rule:nonzero;stroke:none"
             d="m 0,0 c 1.553,-1.376 3.269,-1.971 5.338,-1.945 1.547,0.017 2.838,1.277 2.838,2.836 0,1.589 -1.293,2.785 -2.838,2.838 C 5.171,3.733 5.003,3.742 4.835,3.754 4.024,3.799 5.39,3.617 4.592,3.811 4.278,3.91 4.258,3.913 4.532,3.816 3.963,4.095 4.652,3.623 4.131,4.133 2.992,5.243 1.137,5.267 0,4.133 -1.075,3.057 -1.19,1.057 0,0" /></g><g
           transform="translate(306.707,328.1753)"
           id="g256"><path
             id="path258"
             style="fill:#ba6232;fill-opacity:1;fill-rule:nonzero;stroke:none"
             d="m 0,0 c 0.783,0.027 1.566,0.056 2.35,0.085 1.92,0.072 1.92,2.908 0,2.98 C 1.566,3.094 0.783,3.124 0,3.15 -2.031,3.227 -2.031,-0.076 0,0" /></g><g
           transform="translate(302.5801,288.7988)"
           id="g260"><path
             id="path262"
             style="fill:#ba6232;fill-opacity:1;fill-rule:nonzero;stroke:none"
             d="M 0,0 C 1.646,-0.368 3.264,-0.718 4.959,-0.664 7.084,-0.597 10.14,0.573 9.83,3.194 9.721,2.795 9.613,2.398 9.505,1.997 9.541,2.071 9.576,2.145 9.61,2.217 10.422,3.9 9.092,6.194 7.047,5.551 L 6.827,5.483 C 7.436,5.402 8.045,5.324 8.654,5.244 7.368,6.168 5.574,5.676 4.148,5.322 2.777,4.981 1.381,4.686 0,4.376 -2.173,3.89 -2.175,0.484 0,0" /></g><g
           transform="translate(304.3574,309.73)"
           id="g264"><path
             id="path266"
             style="fill:#ba6232;fill-opacity:1;fill-rule:nonzero;stroke:none"
             d="m 0,0 c 1.173,0.052 2.648,-0.105 3.742,0.332 2.033,0.814 2.033,3.323 0,4.139 C 2.648,4.908 1.173,4.751 0,4.8 -3.096,4.935 -3.096,-0.132 0,0" /></g><g
           transform="translate(336.9883,314.8174)"
           id="g268"><path
             id="path270"
             style="fill:#ba6232;fill-opacity:1;fill-rule:nonzero;stroke:none"
             d="m 0,0 c 1.424,-1.872 3.656,-2.675 5.96,-2.61 2.935,0.086 2.926,4.435 0,4.547 C 5.268,1.962 4.604,1.982 3.912,1.951 3.302,1.924 2.811,1.941 2.275,2.273 0.937,3.105 -1.037,1.363 0,0" /></g><g
           transform="translate(328.5352,299.8896)"
           id="g272"><path
             id="path274"
             style="fill:#ba6232;fill-opacity:1;fill-rule:nonzero;stroke:none"
             d="m 0,0 c 0.705,-0.637 1.409,-1.273 2.113,-1.912 0.806,-0.73 1.501,-1.433 2.588,-1.716 1.367,-0.351 2.61,0.895 2.26,2.26 C 6.682,-0.28 5.977,0.417 5.248,1.222 4.611,1.926 3.972,2.63 3.332,3.334 1.285,5.592 -2.258,2.042 0,0" /></g><g
           transform="translate(357.665,287.4619)"
           id="g276"><path
             id="path278"
             style="fill:#ba6232;fill-opacity:1;fill-rule:nonzero;stroke:none"
             d="M 0,0 C -0.014,0.327 -0.022,0.653 -0.017,0.979 -0.005,1.422 -0.044,0.908 -0.445,0.861 0.362,0.955 1.044,1.466 1.044,2.35 1.044,3.142 0.366,3.865 -0.445,3.839 -2.667,3.769 -3.155,1.87 -3.239,0 -3.333,-2.087 0.087,-2.089 0,0" /></g><g
           transform="translate(363.501,318.8193)"
           id="g280"><path
             id="path282"
             style="fill:#ba6232;fill-opacity:1;fill-rule:nonzero;stroke:none"
             d="M 0,0 C 0.485,0.253 0.974,0.489 1.474,0.711 0.857,0.437 1.612,0.765 1.697,0.803 2.084,0.962 2.468,1.125 2.852,1.289 4.076,1.818 5.425,2.747 5.665,4.15 5.968,5.896 4.92,7.757 2.948,7.717 2.21,7.702 1.528,7.511 0.915,7.105 0.742,6.988 0.553,6.899 0.366,6.809 1.11,7.172 0.45,6.85 0.289,6.791 -0.878,6.361 -2.032,5.935 -3.166,5.419 -4.724,4.71 -5.089,2.486 -4.292,1.125 -3.399,-0.401 -1.515,-0.792 0,0" /></g><g
           transform="translate(365.4424,302.1611)"
           id="g284"><path
             id="path286"
             style="fill:#ba6232;fill-opacity:1;fill-rule:nonzero;stroke:none"
             d="M 0,0 C 0.677,0.027 1.354,0.051 2.03,0.078 3.577,0.141 4.871,1.327 4.871,2.921 4.871,4.515 3.577,5.701 2.03,5.762 1.354,5.789 0.677,5.813 0,5.84 -1.592,5.905 -2.92,4.466 -2.92,2.921 -2.92,1.374 -1.592,-0.063 0,0" /></g><g
           transform="translate(397.1602,274.877)"
           id="g288"><path
             id="path290"
             style="fill:#ba6232;fill-opacity:1;fill-rule:nonzero;stroke:none"
             d="M 0,0 C 0.132,0.012 0.989,-0.002 0.348,0.088 -0.34,0.318 -0.689,0.713 -0.7,1.271 -0.686,1.129 -0.672,0.98 -0.66,0.837 c 0.197,-2.363 3.482,-2.368 3.672,0 C 3.078,1.652 3.061,2.629 2.389,3.225 1.68,3.853 0.91,3.944 0,4.021 -2.588,4.238 -2.594,-0.205 0,0" /></g><g
           transform="translate(435.9258,265.3086)"
           id="g292"><path
             id="path294"
             style="fill:#ba6232;fill-opacity:1;fill-rule:nonzero;stroke:none"
             d="m 0,0 c 1.23,0.13 2.648,0.049 3.588,0.948 0.678,0.646 0.678,1.825 0,2.474 C 2.648,4.318 1.23,4.24 0,4.367 -2.813,4.663 -2.813,-0.294 0,0" /></g><g
           transform="translate(444.7441,284.4258)"
           id="g296"><path
             id="path298"
             style="fill:#ba6232;fill-opacity:1;fill-rule:nonzero;stroke:none"
             d="m 0,0 c -0.07,0.373 -0.14,0.745 -0.209,1.117 -0.29,1.551 -2.832,1.551 -3.123,0 C -3.401,0.745 -3.471,0.373 -3.541,0 c -0.217,-1.158 0.502,-2.324 1.77,-2.324 1.269,0 1.988,1.166 1.771,2.324" /></g><g
           transform="translate(333.4912,281.5273)"
           id="g300"><path
             id="path302"
             style="fill:#ba6232;fill-opacity:1;fill-rule:nonzero;stroke:none"
             d="M 0,0 C 0.36,-0.246 0.72,-0.496 1.081,-0.742 1.399,-0.962 1.473,-1.17 0.825,-0.522 3.095,-2.793 6.612,0.725 4.342,2.993 4.927,2.408 4.813,2.37 4.616,2.656 4.351,3.045 4.084,3.43 3.817,3.818 2.81,5.287 0.778,5.727 -0.565,4.383 -1.908,3.04 -1.468,1.007 0,0" /></g><g
           transform="translate(256.9702,305.791)"
           id="g304"><path
             id="path306"
             style="fill:#ba6232;fill-opacity:1;fill-rule:nonzero;stroke:none"
             d="M 0,0 C 0.55,0.215 1.115,-0.14 1.652,0.108 1.234,-0.006 0.907,1.209 0.487,-0.791 H 1.03 c 4,0 4,7 0,7 H 0.487 C 0.907,6.209 1.28,5.528 1.698,5.416 1.16,5.667 0.573,5.641 0.022,5.858 -1.778,6.569 -3.686,4.673 -3.686,2.929 -3.686,1.185 -1.801,-0.711 0,0" /></g><g
           transform="translate(226.8267,279.9131)"
           id="g308"><path
             id="path310"
             style="fill:#ba6232;fill-opacity:1;fill-rule:nonzero;stroke:none"
             d="M 0,0 C 0.645,0 0.645,1 0,1 -0.645,1 -0.645,0 0,0" /></g><g
           transform="translate(134,267.4834)"
           id="g312"><path
             id="path314"
             style="fill:#ba6232;fill-opacity:1;fill-rule:nonzero;stroke:none"
             d="M 0,0 C 0,0 1.354,0.024 2.344,0.294 4.389,0.854 4.676,3.86 2.632,4.421 1.643,4.69 0,4.715 0,4.715 -5,4.715 -5,0 0,0 0,0 -5,0 0,0" /></g><g
           transform="translate(214.1143,275.3887)"
           id="g316"><path
             id="path318"
             style="fill:#ba6232;fill-opacity:1;fill-rule:nonzero;stroke:none"
             d="m 0,0 c 0,0 1.525,-0.009 1.872,-0.085 0.373,-0.083 0.156,0.002 0.026,0.187 0.334,-0.474 0.777,-0.803 1.357,-0.929 -0.359,0.278 -0.691,0.554 -1.051,0.829 0.016,0.121 0.054,0.057 0.083,-0.188 0.384,-1.496 2.965,-1.684 3.214,0 0.055,0.37 0.113,0.729 0.098,1.1 C 5.517,0.612 5.437,0.31 5.355,0.002 6.068,1.372 5.063,2.742 3.771,3.379 2.679,3.919 0,3.93 0,3.933 -2.296,3.935 -2.296,0 0,0 0,0 -2.296,0 0,0" /></g><g
           transform="translate(264.418,268.5723)"
           id="g320"><path
             id="path322"
             style="fill:#ba6232;fill-opacity:1;fill-rule:nonzero;stroke:none"
             d="M 0,0 C 1.655,1.68 3.696,3.619 4.069,6.07 4.29,7.525 3.725,8.971 2.179,9.395 0.871,9.756 -0.903,8.962 -1.146,7.507 -1.365,6.193 -2.791,4.967 -3.887,3.887 -6.411,1.393 -2.49,-2.526 0,0" /></g><g
           transform="translate(146.0371,253.3203)"
           id="g324"><path
             id="path326"
             style="fill:#ba6232;fill-opacity:1;fill-rule:nonzero;stroke:none"
             d="M 0,0 C 0.773,-0.976 1.933,-1.549 2.975,-2.204 3.648,-2.628 4.512,-2.83 5.266,-3.08 6.5,-3.491 7.407,-3.24 8.56,-2.749 10.192,-2.054 10.5,0.282 9.717,1.661 8.857,3.172 7.24,3.727 5.632,4.098 4.237,4.419 2.474,4.526 1.097,4.156 -0.87,3.63 -1.116,1.408 0,0" /></g><g
           transform="translate(136.7109,250.4795)"
           id="g328"><path
             id="path330"
             style="fill:#ba6232;fill-opacity:1;fill-rule:nonzero;stroke:none"
             d="m 0,0 c -0.02,0.69 -0.04,1.382 -0.059,2.071 -0.03,1.063 -0.134,1.799 -0.813,2.647 -0.566,0.705 -1.971,0.705 -2.537,0 C -4.002,3.976 -4.185,3.363 -4.211,2.417 -4.234,1.61 -4.257,0.805 -4.281,0 -4.359,-2.76 0.079,-2.76 0,0" /></g><g
           transform="translate(161.0195,263.8311)"
           id="g332"><path
             id="path334"
             style="fill:#ba6232;fill-opacity:1;fill-rule:nonzero;stroke:none"
             d="M 0,0 C 0.987,0.011 1.972,0.009 2.956,-0.076 4.356,-0.192 5.5,-0.245 6.627,0.722 7.175,1.188 7.33,2.052 7.155,2.718 6.379,5.665 2.408,5.468 0,5.495 -3.544,5.536 -3.544,-0.036 0,0" /></g><g
           transform="translate(187.4712,258.5283)"
           id="g336"><path
             id="path338"
             style="fill:#ba6232;fill-opacity:1;fill-rule:nonzero;stroke:none"
             d="M 0,0 C 1.851,2.074 3.336,4.576 4.57,7.058 5.552,9.033 3.146,11.028 1.48,9.438 -0.404,7.644 -1.57,5.26 -3.457,3.455 -5.747,1.265 -2.093,-2.347 0,0" /></g><g
           transform="translate(225.9907,276.8164)"
           id="g340"><path
             id="path342"
             style="fill:#ba6232;fill-opacity:1;fill-rule:nonzero;stroke:none"
             d="M 0,0 C 0.523,0.029 1.044,0.047 1.568,0.031 2.213,0.012 2.801,-0.246 3.45,-0.271 4.841,-0.324 5.407,1.408 4.533,2.346 3.435,3.525 1.507,3.59 0,3.676 -2.368,3.805 -2.37,-0.123 0,0" /></g><g
           transform="translate(204.1416,261.9541)"
           id="g344"><path
             id="path346"
             style="fill:#ba6232;fill-opacity:1;fill-rule:nonzero;stroke:none"
             d="M 0,0 C 2.594,-0.237 6.259,-1.275 8.323,0.903 9.423,2.067 8.847,3.737 7.435,4.263 6.199,4.724 4.979,4.269 3.716,4.126 2.453,3.981 1.272,3.618 0,3.5 -2.252,3.289 -2.253,0.208 0,0" /></g><g
           transform="translate(238.0371,263.1563)"
           id="g348"><path
             id="path350"
             style="fill:#ba6232;fill-opacity:1;fill-rule:nonzero;stroke:none"
             d="M 0,0 C 1.345,1.406 3.6,3.033 3.589,5.147 3.585,6.152 2.759,6.981 1.753,6.984 -0.361,6.992 -1.988,4.739 -3.395,3.395 -5.634,1.253 -2.143,-2.24 0,0" /></g><g
           transform="translate(289.3745,273.4688)"
           id="g352"><path
             id="path354"
             style="fill:#ba6232;fill-opacity:1;fill-rule:nonzero;stroke:none"
             d="M 0,0 C 0.837,-0.639 2.005,-0.758 3.019,-0.947 4.28,-1.184 5.435,-1.57 6.723,-1.354 8.245,-1.096 8.615,1.027 7.61,2.005 6.737,2.857 5.711,3.031 4.552,3.213 3.417,3.389 2.156,3.803 1.013,3.745 -1.114,3.637 -1.557,1.185 0,0" /></g><g
           transform="translate(316.5137,276.6426)"
           id="g356"><path
             id="path358"
             style="fill:#ba6232;fill-opacity:1;fill-rule:nonzero;stroke:none"
             d="M 0,0 C 0.605,-1.131 1.18,-2.283 1.874,-3.361 2.773,-4.76 5.308,-3.877 4.676,-2.182 4.178,-0.846 3.547,0.43 2.947,1.721 2.029,3.691 -1.051,1.959 0,0" /></g><g
           transform="translate(324.4082,318.7456)"
           id="g360"><path
             id="path362"
             style="fill:#ba6232;fill-opacity:1;fill-rule:nonzero;stroke:none"
             d="M 0,0 C 0.752,1.235 1.396,2.549 2.025,3.849 2.452,4.728 2.273,5.782 1.383,6.304 0.59,6.769 -0.645,6.538 -1.07,5.661 -1.774,4.206 -2.079,2.621 -2.643,1.116 -3.234,-0.467 -0.826,-1.354 0,0" /></g><g
           transform="translate(370.0488,271.6445)"
           id="g364"><path
             id="path366"
             style="fill:#ba6232;fill-opacity:1;fill-rule:nonzero;stroke:none"
             d="m 0,0 c 1.83,-0.912 4.68,-1.859 6.373,-0.254 0.883,0.837 0.757,2.173 0,3.027 C 5.865,3.346 5.214,3.464 4.59,3.787 3.979,4.101 3.435,4.511 2.818,4.818 1.456,5.498 -0.193,5.195 -1,3.818 -1.73,2.572 -1.359,0.678 0,0" /></g><g
           transform="translate(348.459,268.4229)"
           id="g368"><path
             id="path370"
             style="fill:#ba6232;fill-opacity:1;fill-rule:nonzero;stroke:none"
             d="m 0,0 c 1.279,-0.021 2.781,-0.28 3.911,0.41 1.327,0.812 1.327,2.734 0,3.544 C 2.781,4.646 1.279,4.386 0,4.365 -2.816,4.32 -2.816,0.044 0,0" /></g><g
           transform="translate(428.2227,314.7207)"
           id="g372"><path
             id="path374"
             style="fill:#ba6232;fill-opacity:1;fill-rule:nonzero;stroke:none"
             d="M 0,0 C 0.558,-0.556 1.115,-0.991 1.818,-1.34 4.016,-2.428 6.191,-0.253 5.104,1.944 4.755,2.648 4.32,3.204 3.763,3.765 1.334,6.19 -2.429,2.431 0,0" /></g></g></g><g
       id="g376"><g
         clip-path="url(#clipPath382)"
         id="g378"><g
           id="g384"><g
             id="g386" /><g
             id="g398"><g
               style="opacity:0.25"
               id="g396"
               clip-path="url(#clipPath390)"><g
                 id="g394"
                 transform="translate(154.1274,148.2109)"><path
                   id="path392"
                   style="fill:#6d3218;fill-opacity:1;fill-rule:nonzero;stroke:none"
                   d="m 0,0 c 1.646,-2.852 4.434,-4.971 7.353,-6.403 2.03,-0.998 4.218,1.024 3.106,3.104 C 9.117,-0.787 6.332,0.467 5.12,2.993 3.483,6.403 -1.932,3.35 0,0" /></g></g></g></g><g
           id="g400"><g
             id="g402" /><g
             id="g414"><g
               style="opacity:0.25"
               id="g412"
               clip-path="url(#clipPath406)"><g
                 id="g410"
                 transform="translate(145.354,126.9404)"><path
                   id="path408"
                   style="fill:#6d3218;fill-opacity:1;fill-rule:nonzero;stroke:none"
                   d="M 0,0 C 1.279,0.41 2.561,0.843 3.909,0.91 5.234,0.976 6.595,0.484 7.852,0.126 10.029,-0.493 11.097,2.458 9.334,3.642 6.11,5.802 1.694,5.805 -1.583,3.753 -3.506,2.547 -2.283,-0.729 0,0" /></g></g></g></g><g
           id="g416"><g
             id="g418" /><g
             id="g430"><g
               style="opacity:0.25"
               id="g428"
               clip-path="url(#clipPath422)"><g
                 id="g426"
                 transform="translate(183.4131,118.4453)"><path
                   id="path424"
                   style="fill:#6d3218;fill-opacity:1;fill-rule:nonzero;stroke:none"
                   d="M 0,0 C 2.715,0.267 4.972,0.901 6.525,3.325 7.864,5.408 5.271,7.756 3.242,6.609 2.854,6.388 2.678,6.34 2.1,6.085 2.603,6.307 1.153,5.939 1.979,6.043 1.326,5.959 0.651,6.043 0,6.104 -1.658,6.262 -3.052,4.596 -3.052,3.051 -3.052,1.512 -1.658,-0.162 0,0" /></g></g></g></g><g
           id="g432"><g
             id="g434" /><g
             id="g446"><g
               style="opacity:0.25"
               id="g444"
               clip-path="url(#clipPath438)"><g
                 id="g442"
                 transform="translate(184.4702,155.2168)"><path
                   id="path440"
                   style="fill:#6d3218;fill-opacity:1;fill-rule:nonzero;stroke:none"
                   d="M 0,0 C 1.939,-1.86 3.065,-4.307 5.242,-5.95 7.03,-7.297 9.508,-4.682 8.289,-2.9 6.769,-0.682 5.61,1.792 3.825,3.825 1.533,6.436 -2.534,2.434 0,0" /></g></g></g></g><g
           id="g448"><g
             id="g450" /><g
             id="g462"><g
               style="opacity:0.25"
               id="g460"
               clip-path="url(#clipPath454)"><g
                 id="g458"
                 transform="translate(111.0645,132.6348)"><path
                   id="path456"
                   style="fill:#6d3218;fill-opacity:1;fill-rule:nonzero;stroke:none"
                   d="M 0,0 C -0.399,-0.294 -0.197,0.365 0.12,0.365 H 1.292 C 1.287,0.365 1.28,-0.011 1.273,-0.011 1.787,-0.524 1.865,-1.232 2.378,-1.743 2.376,-1.738 1.936,-1.924 1.936,-1.916 v -1.176 c 0,0.028 0.445,0.053 0.458,0.074 -0.338,-0.441 -0.462,-0.884 -0.803,-1.327 0.901,0.408 1.637,1.895 2.202,2.689 0.161,0.224 0.379,0.448 0.545,0.668 0.163,0.215 0.197,0.222 0.043,0.022 0.126,0.161 0.266,0.321 0.395,0.478 0.556,0.685 1.09,1.261 1.33,2.143 C 6.529,3.205 5.055,4.752 3.478,4.287 1.846,3.805 0.925,2.191 -0.009,0.863 -0.938,-0.45 -2.048,-1.895 -1.231,-3.549 c -0.102,0.375 -0.202,0.749 -0.303,1.121 -0.135,-1.322 1.064,-2.175 2.22,-2.304 0.745,-0.086 1.475,0.435 1.907,0.988 0.602,0.771 0.867,1.88 0.336,2.785 C 2.387,-0.035 0.94,0.697 0,0" /></g></g></g></g><g
           id="g464"><g
             id="g466" /><g
             id="g478"><g
               style="opacity:0.25"
               id="g476"
               clip-path="url(#clipPath470)"><g
                 id="g474"
                 transform="translate(94.333,143.7676)"><path
                   id="path472"
                   style="fill:#6d3218;fill-opacity:1;fill-rule:nonzero;stroke:none"
                   d="m 0,0 c 0.068,-1.553 0.105,-3.157 0.549,-4.655 0.503,-1.693 2.269,-4.276 4.384,-3.56 0.975,0.331 1.437,0.858 1.801,1.803 0.233,0.599 0.071,1.455 -0.26,1.988 -0.1,0.151 -0.192,0.309 -0.275,0.471 C 6.353,-4.35 6.282,-4.188 5.99,-3.474 6.225,-4.005 5.948,-3.233 5.933,-3.171 5.872,-2.844 5.864,-2.826 5.908,-3.117 5.891,-2.922 5.877,-2.727 5.872,-2.529 5.834,-1.689 5.891,-0.842 5.928,0 6.095,3.822 -0.17,3.822 0,0" /></g></g></g></g><g
           id="g480"><g
             id="g482" /><g
             id="g494"><g
               style="opacity:0.25"
               id="g492"
               clip-path="url(#clipPath486)"><g
                 id="g490"
                 transform="translate(254.7056,105.7637)"><path
                   id="path488"
                   style="fill:#6d3218;fill-opacity:1;fill-rule:nonzero;stroke:none"
                   d="M 0,0 C 0.888,1.342 2.123,2.189 3.524,2.927 4.325,3.346 5.234,3.486 6.05,3.906 7.089,4.444 7.667,5.155 8.102,6.221 8.569,7.363 7.605,8.723 6.517,9.014 4.044,9.676 2.175,7.654 0.416,6.247 -1.223,4.939 -2.394,3.271 -3.198,1.351 -4.001,-0.568 -1.035,-1.558 0,0" /></g></g></g></g><g
           id="g496"><g
             id="g498" /><g
             id="g510"><g
               style="opacity:0.25"
               id="g508"
               clip-path="url(#clipPath502)"><g
                 id="g506"
                 transform="translate(225.4321,110.8154)"><path
                   id="path504"
                   style="fill:#6d3218;fill-opacity:1;fill-rule:nonzero;stroke:none"
                   d="M 0,0 C 0.439,-0.194 -0.298,0.351 0.081,-0.026 -0.295,0.348 0.07,-0.056 0.145,-0.187 0.506,-0.841 0.905,-1.386 1.396,-1.952 2.304,-3.002 3.17,-3.907 4.28,-4.755 6.189,-6.206 8.916,-3.374 7.565,-1.471 6.668,-0.204 5.958,1.147 4.983,2.37 4.027,3.567 1.953,4.159 0.491,3.751 -1.078,3.316 -1.701,0.747 0,0" /></g></g></g></g><g
           id="g512"><g
             id="g514" /><g
             id="g526"><g
               style="opacity:0.25"
               id="g524"
               clip-path="url(#clipPath518)"><g
                 id="g522"
                 transform="translate(289.3652,154.0215)"><path
                   id="path520"
                   style="fill:#6d3218;fill-opacity:1;fill-rule:nonzero;stroke:none"
                   d="M 0,0 C 0.081,-0.044 0.484,-0.34 0.117,-0.044 -0.075,0.283 -0.266,0.61 -0.456,0.939 -0.175,0.055 0.25,-0.402 0.979,-0.95 c 0.13,-0.083 0.256,-0.173 0.382,-0.263 -0.53,0.375 0.064,-0.082 0.142,-0.154 0.428,-0.395 0.842,-0.77 1.328,-1.101 -0.495,0.372 -0.381,0.282 0.342,-0.271 0.539,-0.316 1.089,-0.415 1.708,-0.424 -0.694,0.287 -1.389,0.574 -2.084,0.861 0.832,-0.706 1.456,-1.003 2.558,-1.136 -0.57,0.237 -1.142,0.475 -1.713,0.708 -0.066,0.081 -0.133,0.16 -0.2,0.24 0.418,-0.689 1.15,-1.125 1.96,-1.125 1.109,0 1.792,0.717 2.19,1.668 0.075,0.203 0.083,0.192 0.02,-0.036 0.261,0.448 0.392,0.932 0.393,1.455 0,0.661 -0.254,1.242 -0.579,1.799 C 7.561,0.776 7.694,0.281 7.829,-0.217 7.896,1.853 6.14,3.034 4.427,3.655 2.959,4.189 1.305,4.197 0.117,3.107 0.443,3.299 0.771,3.489 1.1,3.68 0.72,3.57 0.356,3.418 0,3.247 -1.294,2.629 -1.153,0.66 0,0" /></g></g></g></g><g
           id="g528"><g
             id="g530" /><g
             id="g542"><g
               style="opacity:0.25"
               id="g540"
               clip-path="url(#clipPath534)"><g
                 id="g538"
                 transform="translate(286.23,124.835)"><path
                   id="path536"
                   style="fill:#6d3218;fill-opacity:1;fill-rule:nonzero;stroke:none"
                   d="m 0,0 c 1.164,-1.154 2.722,-1.905 4.077,-2.817 1.203,-0.813 2.506,-2.075 3.938,-2.416 1.417,-0.34 2.862,0.935 2.418,2.418 C 9.99,-1.331 8.511,-0.263 7.173,0.413 5.465,1.271 3.429,2.351 1.533,2.637 0.07,2.854 -1.22,1.211 0,0" /></g></g></g></g><g
           id="g544"><g
             id="g546" /><g
             id="g558"><g
               style="opacity:0.25"
               id="g556"
               clip-path="url(#clipPath550)"><g
                 id="g554"
                 transform="translate(267.5435,140.4707)"><path
                   id="path552"
                   style="fill:#6d3218;fill-opacity:1;fill-rule:nonzero;stroke:none"
                   d="M 0,0 C 0.299,-0.063 0.6,-0.127 0.899,-0.192 0.593,-0.014 0.288,0.164 -0.019,0.344 1.054,-0.563 2.028,-0.632 3.367,-0.697 4.768,-0.762 6.288,-0.805 7.518,-0.035 8.901,0.83 8.901,2.797 7.518,3.66 6.39,4.368 4.979,4.395 3.686,4.336 2.252,4.27 1.138,4.258 -0.019,3.283 0.288,3.463 0.593,3.639 0.899,3.816 0.6,3.752 0.299,3.688 0,3.626 -1.8,3.242 -1.8,0.384 0,0" /></g></g></g></g><g
           id="g560"><g
             id="g562" /><g
             id="g574"><g
               style="opacity:0.25"
               id="g572"
               clip-path="url(#clipPath566)"><g
                 id="g570"
                 transform="translate(322.9795,136.0898)"><path
                   id="path568"
                   style="fill:#6d3218;fill-opacity:1;fill-rule:nonzero;stroke:none"
                   d="M 0,0 C 1.308,0.019 2.653,0.092 3.831,0.718 5.489,1.602 6.409,3.46 5.937,5.296 5.669,6.334 4.804,7.173 3.776,7.457 2.341,7.852 1.106,7.175 0.283,6.033 0.244,5.98 0.206,5.926 0.165,5.873 -0.329,4.799 -0.251,4.854 0.399,6.038 0.488,6.15 1.554,6.592 0.997,6.441 0.294,6.249 1.755,6.496 0.973,6.453 0.649,6.436 0.323,6.443 0,6.449 -1.758,6.469 -3.226,4.967 -3.226,3.225 -3.226,1.482 -1.758,-0.024 0,0" /></g></g></g></g><g
           id="g576"><g
             id="g578" /><g
             id="g590"><g
               style="opacity:0.25"
               id="g588"
               clip-path="url(#clipPath582)"><g
                 id="g586"
                 transform="translate(316.3535,160.1699)"><path
                   id="path584"
                   style="fill:#6d3218;fill-opacity:1;fill-rule:nonzero;stroke:none"
                   d="M 0,0 C 0.947,0.152 1.895,0.307 2.842,0.459 5.27,0.852 5.27,4.948 2.842,5.34 1.895,5.493 0.947,5.647 0,5.801 -1.898,6.107 -3.808,5.016 -3.808,2.898 -3.808,0.785 -1.898,-0.31 0,0" /></g></g></g></g><g
           id="g592"><g
             id="g594" /><g
             id="g606"><g
               style="opacity:0.25"
               id="g604"
               clip-path="url(#clipPath598)"><g
                 id="g602"
                 transform="translate(355.8643,121.4961)"><path
                   id="path600"
                   style="fill:#6d3218;fill-opacity:1;fill-rule:nonzero;stroke:none"
                   d="m 0,0 c -0.042,0.496 -0.086,0.989 -0.13,1.484 -0.178,2.03 -2.974,2.03 -3.152,0 C -3.325,0.989 -3.368,0.496 -3.412,0 -3.604,-2.199 0.192,-2.199 0,0" /></g></g></g></g><g
           id="g608"><g
             id="g610" /><g
             id="g622"><g
               style="opacity:0.25"
               id="g620"
               clip-path="url(#clipPath614)"><g
                 id="g618"
                 transform="translate(325.0742,109.0059)"><path
                   id="path616"
                   style="fill:#6d3218;fill-opacity:1;fill-rule:nonzero;stroke:none"
                   d="M 0,0 C 1.691,1.773 3.719,3.557 4.422,5.982 4.873,7.541 3.348,9.067 1.789,8.617 -0.639,7.91 -2.419,5.886 -4.191,4.195 -5.36,3.078 -5.313,1.123 -4.191,0 -3.069,-1.118 -1.114,-1.166 0,0" /></g></g></g></g><g
           id="g624"><g
             id="g626" /><g
             id="g638"><g
               style="opacity:0.25"
               id="g636"
               clip-path="url(#clipPath630)"><g
                 id="g634"
                 transform="translate(354.1035,168.0469)"><path
                   id="path632"
                   style="fill:#6d3218;fill-opacity:1;fill-rule:nonzero;stroke:none"
                   d="m 0,0 c 3.074,1.428 7.225,0.219 10,2.156 1.313,0.922 1.315,2.63 0,3.547 C 8.36,6.847 5.989,6.717 4.093,6.578 1.654,6.4 -0.633,5.898 -2.861,4.894 -6.177,3.396 -3.304,-1.537 0,0" /></g></g></g></g><g
           id="g640"><g
             id="g642" /><g
             id="g654"><g
               style="opacity:0.25"
               id="g652"
               clip-path="url(#clipPath646)"><g
                 id="g650"
                 transform="translate(345.25,145.2559)"><path
                   id="path648"
                   style="fill:#6d3218;fill-opacity:1;fill-rule:nonzero;stroke:none"
                   d="M 0,0 C 1.223,-0.021 2.176,-0.428 3.238,-1.002 4.881,-1.893 6.098,-2.574 8.025,-2.19 9.586,-1.883 9.946,-0.092 9.383,1.144 8.613,2.834 6.931,3.601 5.379,4.453 3.689,5.381 1.92,5.848 0,5.93 -3.815,6.092 -3.826,0.067 0,0" /></g></g></g></g><g
           id="g656"><g
             id="g658" /><g
             id="g670"><g
               style="opacity:0.25"
               id="g668"
               clip-path="url(#clipPath662)"><g
                 id="g666"
                 transform="translate(384.0693,148.5693)"><path
                   id="path664"
                   style="fill:#6d3218;fill-opacity:1;fill-rule:nonzero;stroke:none"
                   d="m 0,0 c -0.872,-3.896 -0.811,-8.251 -0.655,-12.226 0.097,-2.48 3.75,-2.48 3.847,0 C 3.348,-8.251 3.409,-3.896 2.537,0 2.255,1.261 0.281,1.261 0,0" /></g></g></g></g><g
           id="g672"><g
             id="g674" /><g
             id="g686"><g
               style="opacity:0.25"
               id="g684"
               clip-path="url(#clipPath678)"><g
                 id="g682"
                 transform="translate(373.7031,155.4033)"><path
                   id="path680"
                   style="fill:#6d3218;fill-opacity:1;fill-rule:nonzero;stroke:none"
                   d="M 0,0 C 2.037,2.103 5.299,4.878 4.496,8.154 4.025,10.08 1.576,9.72 0.955,8.154 1.008,8.291 1.226,8.544 0.934,8.224 0.763,8.036 0.598,7.852 0.434,7.659 0.038,7.194 -0.335,6.718 -0.732,6.255 -1.582,5.269 -2.521,4.36 -3.456,3.455 -5.723,1.26 -2.195,-2.267 0,0" /></g></g></g></g><g
           id="g688"><g
             id="g690" /><g
             id="g702"><g
               style="opacity:0.25"
               id="g700"
               clip-path="url(#clipPath694)"><g
                 id="g698"
                 transform="translate(375.9814,179.1133)"><path
                   id="path696"
                   style="fill:#6d3218;fill-opacity:1;fill-rule:nonzero;stroke:none"
                   d="M 0,0 C 1.592,0.84 2.473,0.184 3.696,-0.918 5.333,-2.391 7.589,-0.139 6.109,1.497 3.991,3.838 1.536,5.008 -1.583,3.753 -4.357,2.637 -2.621,-1.384 0,0" /></g></g></g></g><g
           id="g704"><g
             id="g706" /><g
             id="g718"><g
               style="opacity:0.25"
               id="g716"
               clip-path="url(#clipPath710)"><g
                 id="g714"
                 transform="translate(416.3516,155.793)"><path
                   id="path712"
                   style="fill:#6d3218;fill-opacity:1;fill-rule:nonzero;stroke:none"
                   d="m 0,0 c 2.939,-1.435 7.082,-4.625 10.374,-2.369 1.721,1.18 1.565,3.239 0,4.445 C 9.441,2.794 8.206,2.929 7.162,3.429 5.828,4.067 4.602,4.939 3.299,5.644 -0.433,7.657 -3.76,1.836 0,0" /></g></g></g></g><g
           id="g720"><g
             id="g722" /><g
             id="g734"><g
               style="opacity:0.25"
               id="g732"
               clip-path="url(#clipPath726)"><g
                 id="g730"
                 transform="translate(398.8984,160.8311)"><path
                   id="path728"
                   style="fill:#6d3218;fill-opacity:1;fill-rule:nonzero;stroke:none"
                   d="M 0,0 C 0.838,-1.441 1.998,-2.639 2.793,-4.125 3.529,-5.502 3.752,-7.112 4.011,-8.632 4.38,-10.791 7.324,-9.993 7.533,-8.154 7.955,-4.441 5.129,0.124 2.038,2.04 0.75,2.837 -0.738,1.271 0,0" /></g></g></g></g><g
           id="g736"><g
             id="g738" /><g
             id="g750"><g
               style="opacity:0.25"
               id="g748"
               clip-path="url(#clipPath742)"><g
                 id="g746"
                 transform="translate(413.0771,131.6396)"><path
                   id="path744"
                   style="fill:#6d3218;fill-opacity:1;fill-rule:nonzero;stroke:none"
                   d="m 0,0 c 2.139,1.071 4.087,1.161 6.41,1.427 2.306,0.261 2.307,3.324 0,3.584 C 3.395,5.353 0.702,4.749 -2.028,3.471 -4.358,2.379 -2.323,-1.165 0,0" /></g></g></g></g><g
           id="g752"><g
             id="g754" /><g
             id="g766"><g
               style="opacity:0.25"
               id="g764"
               clip-path="url(#clipPath758)"><g
                 id="g762"
                 transform="translate(370.4893,120.7119)"><path
                   id="path760"
                   style="fill:#6d3218;fill-opacity:1;fill-rule:nonzero;stroke:none"
                   d="m 0,0 c 3.2,-0.168 5.751,-2.315 8.909,-2.581 1.756,-0.145 2.322,2.095 1.329,3.209 C 7.874,3.284 3.454,4.479 0,4.54 -2.944,4.59 -2.904,0.152 0,0" /></g></g></g></g><g
           id="g768"><g
             id="g770" /><g
             id="g782"><g
               style="opacity:0.25"
               id="g780"
               clip-path="url(#clipPath774)"><g
                 id="g778"
                 transform="translate(447.6348,137.8926)"><path
                   id="path776"
                   style="fill:#6d3218;fill-opacity:1;fill-rule:nonzero;stroke:none"
                   d="M 0,0 C 1.898,1.87 3.596,4.594 3.383,7.361 3.232,9.296 0.139,10.016 -0.225,7.85 -0.363,7.022 -0.812,6.379 -1.139,5.621 -1.566,4.633 -2.122,3.646 -2.844,2.841 -4.566,0.924 -1.861,-1.832 0,0" /></g></g></g></g><g
           id="g784"><g
             id="g786" /><g
             id="g798"><g
               style="opacity:0.25"
               id="g796"
               clip-path="url(#clipPath790)"><g
                 id="g794"
                 transform="translate(444.0234,171.373)"><path
                   id="path792"
                   style="fill:#6d3218;fill-opacity:1;fill-rule:nonzero;stroke:none"
                   d="m 0,0 c 0.511,-1.703 0.797,-3.473 1.25,-5.199 0.504,-1.916 1.297,-3.014 2.486,-4.525 1.353,-1.721 3.724,0.189 3.36,1.955 -0.317,1.53 -0.461,3.087 -0.832,4.632 C 5.834,-1.345 5.16,0.207 4.149,1.749 2.776,3.846 -0.766,2.555 0,0" /></g></g></g></g><g
           id="g800"><g
             id="g802" /><g
             id="g814"><g
               style="opacity:0.25"
               id="g812"
               clip-path="url(#clipPath806)"><g
                 id="g810"
                 transform="translate(492.6055,140.4336)"><path
                   id="path808"
                   style="fill:#6d3218;fill-opacity:1;fill-rule:nonzero;stroke:none"
                   d="M 0,0 C 0.949,1.023 1.726,2.197 2.483,3.367 3.271,4.584 4.141,5.84 4.541,7.252 4.943,8.67 3.537,10.217 2.068,9.726 -0.768,8.777 -1.75,5.681 -3.701,3.701 -6.076,1.291 -2.292,-2.476 0,0" /></g></g></g></g><g
           id="g816"><g
             id="g818" /><g
             id="g830"><g
               style="opacity:0.25"
               id="g828"
               clip-path="url(#clipPath822)"><g
                 id="g826"
                 transform="translate(464.0293,134.8555)"><path
                   id="path824"
                   style="fill:#6d3218;fill-opacity:1;fill-rule:nonzero;stroke:none"
                   d="m 0,0 c 2.475,0.028 4.949,0.058 7.423,0.087 1.809,0.02 1.809,2.782 0,2.805 C 4.949,2.921 2.475,2.95 0,2.979 -1.921,2.999 -1.921,-0.023 0,0" /></g></g></g></g><g
           id="g832"><g
             id="g834" /><g
             id="g846"><g
               style="opacity:0.25"
               id="g844"
               clip-path="url(#clipPath838)"><g
                 id="g842"
                 transform="translate(143.6279,161.9678)"><path
                   id="path840"
                   style="fill:#6d3218;fill-opacity:1;fill-rule:nonzero;stroke:none"
                   d="M 0,0 C 1.798,0.354 3.429,1.157 5.071,1.958 6.31,2.559 8.254,3.731 8.556,5.159 8.807,6.353 7.863,7.171 6.724,6.993 5.556,6.81 4.331,5.576 3.313,4.964 1.777,4.038 0.223,3.11 -1.112,1.911 -2.025,1.087 -1.042,-0.204 0,0" /></g></g></g></g><g
           id="g848"><g
             id="g850" /><g
             id="g862"><g
               style="opacity:0.25"
               id="g860"
               clip-path="url(#clipPath854)"><g
                 id="g858"
                 transform="translate(211.2378,130.4043)"><path
                   id="path856"
                   style="fill:#6d3218;fill-opacity:1;fill-rule:nonzero;stroke:none"
                   d="m 0,0 c 0.001,0.012 0.002,0.022 0.004,0.033 -0.27,-0.353 -0.54,-0.708 -0.81,-1.062 0.084,0.011 0.167,0.027 0.251,0.039 0.702,0.113 1.336,0.838 1.501,1.5 0.43,1.746 0.485,3.225 0.266,5.008 -0.13,1.07 -0.298,2.13 -0.504,3.185 -0.242,1.242 -0.885,1.756 -1.595,2.682 -1.155,1.511 -3.571,1.099 -3.664,-0.99 -0.041,-0.893 -0.374,-1.604 -0.167,-2.532 0.225,-1.017 0.422,-2.038 0.58,-3.067 0.232,-1.511 0.448,-3.505 0.941,-4.955 0.342,-1.003 1.058,0.755 2.072,-2.245 H -1.1 c -0.354,3 -0.709,1.207 -1.064,1.475 0.001,-0.009 0.004,0.312 0.005,0.304 C -1.968,-1.971 -0.147,-1.099 0,0" /></g></g></g></g><g
           id="g864"><g
             id="g866" /><g
             id="g878"><g
               style="opacity:0.25"
               id="g876"
               clip-path="url(#clipPath870)"><g
                 id="g874"
                 transform="translate(167.9526,163.9053)"><path
                   id="path872"
                   style="fill:#6d3218;fill-opacity:1;fill-rule:nonzero;stroke:none"
                   d="m 0,0 c 0.223,1.365 0.382,2.892 0.658,4.009 0.189,0.763 0.743,1.385 0.743,2.356 0,1.108 -0.754,2.097 -1.817,2.388 C -2.858,9.425 -4.159,6.686 -4.677,4.81 -5.131,3.161 -4.98,1.657 -4.712,0 -4.333,-2.345 -0.383,-2.343 0,0" /></g></g></g></g><g
           id="g880"><g
             id="g882" /><g
             id="g894"><g
               style="opacity:0.25"
               id="g892"
               clip-path="url(#clipPath886)"><g
                 id="g890"
                 transform="translate(159.6572,109.0938)"><path
                   id="path888"
                   style="fill:#6d3218;fill-opacity:1;fill-rule:nonzero;stroke:none"
                   d="M 0,0 C 1.184,0.063 2.192,0.493 3.241,1.016 4.244,1.518 5.232,1.699 5.926,2.635 6.392,3.26 6.137,4.18 5.66,4.699 4.729,5.717 3.32,5.426 2.202,4.95 1.521,4.661 0.605,4.054 0,4.02 -1.094,3.962 -2.01,3.15 -2.01,2.012 -2.01,0.957 -1.096,-0.059 0,0" /></g></g></g></g><g
           id="g896"><g
             id="g898" /><g
             id="g910"><g
               style="opacity:0.25"
               id="g908"
               clip-path="url(#clipPath902)"><g
                 id="g906"
                 transform="translate(400.0781,114.4258)"><path
                   id="path904"
                   style="fill:#6d3218;fill-opacity:1;fill-rule:nonzero;stroke:none"
                   d="m 0,0 c 0,-0.003 2.271,-0.019 3.428,-0.348 0.656,-0.186 1.521,-0.736 2.371,-0.736 1.168,0 1.965,0.734 2.344,1.773 C 8.937,2.874 6.129,4.326 4.503,4.786 3.074,5.192 2.297,5.232 0,5.232 -4.591,5.234 -4.591,0 0,0 0,0 -4.591,0 0,0" /></g></g></g></g><g
           id="g912"><g
             id="g914" /><g
             id="g926"><g
               style="opacity:0.25"
               id="g924"
               clip-path="url(#clipPath918)"><g
                 id="g922"
                 transform="translate(136.4512,143.4727)"><path
                   id="path920"
                   style="fill:#6d3218;fill-opacity:1;fill-rule:nonzero;stroke:none"
                   d="m 0,0 c -1.517,2.09 -3.713,6.363 -6.958,4.808 0.321,0.087 0.643,0.174 0.964,0.26 -0.33,0.036 -0.645,-0.025 -0.972,-0.074 -1.865,-0.287 -1.555,-2.978 0,-3.46 -0.185,0.101 -0.183,0.092 0.008,-0.02 -0.292,0.381 -0.584,0.759 -0.876,1.138 0.063,-0.248 0.176,-0.56 0.295,-0.759 0.113,-0.146 0.226,-0.293 0.34,-0.44 -0.146,0.195 -0.144,0.182 0.005,-0.037 0.124,-0.193 0.224,-0.404 0.333,-0.605 0.177,-0.243 0.364,-0.481 0.558,-0.707 0.188,-0.233 0.217,-0.269 0.088,-0.11 0.781,-1.036 1.481,-2.043 2.513,-2.849 0.849,-0.663 1.858,-0.956 2.856,-0.369 C 0.18,-2.623 0.756,-1.042 0,0" /></g></g></g></g><g
           id="g928"><g
             id="g930" /><g
             id="g942"><g
               style="opacity:0.25"
               id="g940"
               clip-path="url(#clipPath934)"><g
                 id="g938"
                 transform="translate(128.4761,118.8809)"><path
                   id="path936"
                   style="fill:#6d3218;fill-opacity:1;fill-rule:nonzero;stroke:none"
                   d="m 0,0 c 0.716,0.023 -0.495,0.189 -0.729,0.402 -0.107,0.095 -0.361,0.741 -0.208,0.245 0.013,-0.04 0.14,-0.737 0.078,-0.264 0.032,-0.244 0.052,-0.491 0.074,-0.736 0.271,-2.92 4.276,-2.925 4.54,0 C 3.964,1.943 3.442,4.729 0.696,5.141 -0.713,5.352 -2.112,4.809 -2.523,3.313 -2.963,1.713 -1.711,-0.059 0,0" /></g></g></g></g><g
           id="g944"><g
             id="g946" /><g
             id="g958"><g
               style="opacity:0.25"
               id="g956"
               clip-path="url(#clipPath950)"><g
                 id="g954"
                 transform="translate(94.2456,158.6133)"><path
                   id="path952"
                   style="fill:#6d3218;fill-opacity:1;fill-rule:nonzero;stroke:none"
                   d="m 0,0 c 0.012,0.368 0.418,0.635 0.648,0.92 0.494,0.607 0.725,1.267 0.75,2.051 0.053,1.716 -2.496,1.668 -2.632,0 C -1.264,2.619 -1.761,2.323 -1.988,2.072 -2.527,1.471 -2.74,0.789 -2.805,0 -2.952,-1.786 -0.056,-1.818 0,0" /></g></g></g></g><g
           id="g960"><g
             id="g962" /><g
             id="g974"><g
               style="opacity:0.25"
               id="g972"
               clip-path="url(#clipPath966)"><g
                 id="g970"
                 transform="translate(82.1753,131.6152)"><path
                   id="path968"
                   style="fill:#6d3218;fill-opacity:1;fill-rule:nonzero;stroke:none"
                   d="m 0,0 c 0.845,-0.803 1.691,-1.607 2.536,-2.412 1.048,-1 2.105,-2.238 3.678,-2.207 1.064,0.023 1.901,0.859 1.923,1.924 0.03,1.462 -1.031,2.441 -1.965,3.424 C 5.288,1.659 4.404,2.59 3.518,3.518 1.303,5.845 -2.326,2.215 0,0" /></g></g></g></g><g
           id="g976"><g
             id="g978" /><g
             id="g990"><g
               style="opacity:0.25"
               id="g988"
               clip-path="url(#clipPath982)"><g
                 id="g986"
                 transform="translate(436.8271,125.7051)"><path
                   id="path984"
                   style="fill:#6d3218;fill-opacity:1;fill-rule:nonzero;stroke:none"
                   d="m 0,0 c 0.924,-0.173 1.704,-0.699 2.466,-1.227 1.096,-0.751 2.189,-1.387 3.462,-1.785 1.27,-0.394 2.737,0.945 2.259,2.261 C 7.134,2.141 3.478,3.807 0.477,3.522 -1.397,3.346 -2.129,0.396 0,0" /></g></g></g></g><g
           id="g992"><g
             id="g994" /><g
             id="g1006"><g
               style="opacity:0.25"
               id="g1004"
               clip-path="url(#clipPath998)"><g
                 id="g1002"
                 transform="translate(205.6563,114.0996)"><path
                   id="path1000"
                   style="fill:#6d3218;fill-opacity:1;fill-rule:nonzero;stroke:none"
                   d="m 0,0 c -0.821,-0.829 -1.639,-1.66 -2.457,-2.49 -0.927,-0.942 -1.779,-1.736 -2.298,-2.975 -0.527,-1.256 1.058,-2.837 2.312,-2.314 1.24,0.519 2.033,1.372 2.976,2.299 0.83,0.818 1.661,1.638 2.493,2.457 C 4.994,-1.087 1.939,1.969 0,0" /></g></g></g></g><g
           id="g1008"><g
             id="g1010" /><g
             id="g1022"><g
               style="opacity:0.25"
               id="g1020"
               clip-path="url(#clipPath1014)"><g
                 id="g1018"
                 transform="translate(260.4326,130.2188)"><path
                   id="path1016"
                   style="fill:#6d3218;fill-opacity:1;fill-rule:nonzero;stroke:none"
                   d="M 0,0 C -1.031,0.947 -2.062,1.898 -3.092,2.85 -4.671,4.305 -6.897,2.076 -5.443,0.495 -4.495,-0.536 -3.547,-1.565 -2.597,-2.597 -0.988,-4.341 1.747,-1.605 0,0" /></g></g></g></g><g
           id="g1024"><g
             id="g1026" /><g
             id="g1038"><g
               style="opacity:0.25"
               id="g1036"
               clip-path="url(#clipPath1030)"><g
                 id="g1034"
                 transform="translate(284.3745,103.5537)"><path
                   id="path1032"
                   style="fill:#6d3218;fill-opacity:1;fill-rule:nonzero;stroke:none"
                   d="M 0,0 C 1.52,0 3.296,-0.192 4.371,1.123 3.96,0.884 3.55,0.646 3.14,0.408 c 0.642,0.161 1.311,0.231 1.965,0.329 2.343,0.36 2.343,4.357 0,4.715 C 4.451,5.552 3.782,5.62 3.14,5.782 3.55,5.544 3.96,5.305 4.371,5.067 3.296,6.383 1.52,6.19 0,6.19 -1.686,6.19 -3.095,4.782 -3.095,3.094 -3.095,1.408 -1.686,0 0,0" /></g></g></g></g><g
           id="g1040"><g
             id="g1042" /><g
             id="g1054"><g
               style="opacity:0.25"
               id="g1052"
               clip-path="url(#clipPath1046)"><g
                 id="g1050"
                 transform="translate(346.7344,106.2559)"><path
                   id="path1048"
                   style="fill:#6d3218;fill-opacity:1;fill-rule:nonzero;stroke:none"
                   d="M 0,0 C 1.521,0.182 2.931,0.177 4.453,0.123 5.097,0.103 5.623,0.068 6.255,-0.07 6.954,-0.225 7.775,-0.148 8.328,-0.227 10.27,-0.5 12.267,1.795 10.451,3.423 9.564,4.217 8.957,4.99 7.743,5.326 6.662,5.627 5.572,5.791 4.453,5.857 2.376,5.988 0.115,4.56 -1.329,3.208 -2.441,2.168 -1.664,-0.202 0,0" /></g></g></g></g></g></g></g></svg>